<svg role="img" aria-label="hikaru" version="1.0" xmlns="http://www.w3.org/2000/svg"
 width="1272" height="264" viewBox="0 0 1272 264"
 preserveAspectRatio="xMidYMid meet">
<g transform="translate(0.000000,264.000000) scale(0.100000,-0.100000)"
fill="currentColor" stroke="none">
<path d="M2900 2615 c-5 -13 -26 -33 -47 -44 -66 -34 -120 -99 -153 -185 -39
-101 -39 -151 2 -258 27 -71 40 -91 92 -139 54 -51 70 -60 153 -84 105 -31
146 -31 262 4 65 20 80 30 137 88 78 79 90 101 105 192 19 113 -6 237 -59 290
-7 8 -20 24 -28 37 -9 12 -36 32 -61 44 -31 14 -49 30 -56 51 -11 29 -11 29
-174 29 -163 0 -163 0 -173 -25z m250 -228 c54 -26 81 -148 46 -202 -18 -27
-104 -75 -134 -75 -38 0 -108 56 -132 106 -23 47 -23 47 6 102 16 30 38 60 49
68 24 17 131 18 165 1z"/>
<path d="M394 2489 c-56 -13 -146 -102 -164 -161 -7 -24 -21 -61 -32 -82 -22
-44 -30 -137 -48 -566 -5 -140 -19 -331 -29 -425 -11 -93 -25 -240 -31 -325
-22 -319 -36 -401 -72 -439 -16 -18 -18 -39 -18 -205 0 -184 0 -184 30 -191
33 -7 70 -48 70 -76 0 -17 9 -19 104 -19 95 0 105 2 111 20 3 11 21 32 39 47
46 38 104 116 128 172 10 25 28 55 38 66 10 11 27 40 38 65 11 25 30 59 44 75
14 17 35 49 47 72 12 24 25 43 30 43 5 0 20 17 32 38 12 20 36 53 53 73 17 20
54 65 81 99 106 134 300 330 326 330 26 0 37 -27 45 -106 3 -38 19 -125 34
-194 16 -69 31 -148 35 -175 4 -37 20 -72 56 -128 48 -74 55 -80 125 -112 41
-19 102 -39 135 -46 80 -16 211 -6 272 20 26 11 76 28 110 37 34 8 78 26 97
39 19 13 60 34 90 48 30 13 61 32 69 41 8 10 28 24 45 33 39 20 92 63 162 131
29 28 62 52 72 52 29 0 50 -31 58 -80 11 -81 83 -278 118 -328 96 -133 181
-184 351 -212 65 -11 98 -7 229 27 68 17 115 35 149 59 27 19 54 34 61 34 6 0
33 18 60 40 26 22 52 40 56 40 16 0 172 135 279 241 80 79 148 126 163 111 5
-5 -1 -43 -13 -88 -29 -112 -39 -376 -15 -422 26 -50 80 -72 176 -72 93 0 120
11 172 68 35 39 35 40 42 158 8 119 8 119 52 185 47 71 58 79 105 79 24 0 47
-18 122 -92 131 -132 235 -222 283 -246 23 -12 55 -32 71 -46 37 -31 209 -76
290 -76 122 1 271 55 408 149 17 11 43 29 59 38 16 10 48 34 70 53 93 81 121
96 167 92 18 -2 34 -37 44 -94 4 -27 24 -59 72 -113 55 -63 73 -77 116 -90
111 -33 277 -8 417 62 53 26 110 59 128 73 63 48 237 202 245 216 10 17 60 44
82 44 9 0 44 -30 78 -66 87 -93 180 -138 287 -138 46 1 103 9 145 21 39 12 94
26 123 33 29 7 68 22 86 35 19 13 56 33 81 44 26 12 63 34 81 51 19 16 39 30
44 30 5 0 34 21 64 47 72 64 126 103 141 103 27 0 37 -29 30 -77 -23 -138 10
-459 51 -504 46 -51 127 -73 211 -58 114 21 147 51 172 154 7 28 23 78 36 111
14 34 30 84 36 112 5 28 23 70 39 94 15 24 33 62 39 85 6 23 22 55 35 70 13
15 33 46 45 67 32 57 77 111 161 196 122 122 193 163 375 216 28 8 92 14 147
14 155 0 191 22 219 134 10 39 9 53 -5 90 -22 56 -57 88 -136 121 -143 60
-260 71 -355 36 -27 -11 -72 -27 -100 -36 -107 -37 -206 -100 -293 -186 -40
-38 -79 -83 -87 -99 -18 -35 -47 -52 -71 -43 -15 5 -16 16 -8 107 12 138 9
207 -9 242 -20 39 -128 104 -174 104 -58 0 -148 -56 -194 -121 -14 -20 -26
-62 -35 -120 -13 -89 -55 -188 -89 -206 -7 -5 -67 -58 -132 -120 -65 -61 -137
-125 -160 -142 -22 -16 -44 -35 -48 -40 -3 -6 -25 -21 -48 -32 -23 -12 -51
-29 -62 -39 -24 -22 -239 -100 -276 -100 -28 0 -112 58 -129 90 -33 62 -19
265 29 415 45 140 43 184 -16 293 -26 48 -61 100 -78 115 -47 44 -175 78 -293
79 -86 1 -109 -3 -205 -36 -59 -20 -126 -49 -149 -66 -22 -16 -47 -30 -54 -30
-7 0 -28 -13 -46 -29 -18 -15 -51 -39 -73 -53 -56 -35 -202 -182 -240 -243
-18 -28 -41 -57 -50 -65 -9 -7 -26 -32 -37 -54 -11 -23 -31 -54 -44 -69 -13
-15 -29 -46 -35 -68 -12 -38 -29 -56 -165 -177 -38 -34 -66 -57 -184 -147 -25
-19 -63 -44 -85 -56 -22 -12 -53 -32 -68 -45 -15 -13 -50 -30 -76 -38 -26 -8
-66 -23 -89 -35 -62 -32 -110 -27 -206 19 -45 22 -91 49 -102 61 -10 12 -32
28 -47 36 -15 8 -65 46 -110 86 -147 130 -157 141 -157 176 0 29 17 49 142
169 78 75 160 154 182 174 166 152 244 231 278 283 34 52 39 66 35 103 -9 89
-84 157 -186 169 -57 6 -191 -34 -231 -71 -14 -12 -41 -33 -60 -47 -46 -31
-123 -111 -185 -193 -86 -114 -210 -259 -272 -318 -69 -67 -99 -39 -65 60 32
91 40 131 52 242 6 58 24 159 40 225 16 66 34 165 40 220 6 55 19 147 29 205
36 197 36 189 -5 266 -20 37 -44 74 -53 81 -32 23 -141 36 -203 24 -52 -11
-62 -18 -109 -72 -57 -67 -50 -36 -79 -348 -6 -67 -17 -155 -25 -195 -13 -68
-19 -128 -46 -416 -10 -114 -14 -130 -45 -180 -47 -79 -240 -271 -431 -432
-119 -100 -139 -115 -163 -128 -14 -7 -35 -22 -48 -33 -24 -22 -105 -71 -179
-107 -83 -41 -189 -25 -219 32 -47 91 -44 493 6 728 26 125 26 176 -3 222 -55
91 -120 106 -244 58 -139 -53 -199 -137 -238 -332 -17 -81 -41 -135 -66 -149
-11 -5 -41 -29 -68 -52 -27 -23 -75 -62 -105 -87 -31 -25 -77 -62 -102 -82
-25 -21 -51 -38 -57 -38 -7 0 -38 -18 -71 -40 -32 -22 -65 -40 -73 -40 -7 0
-46 -17 -85 -37 -65 -34 -79 -38 -150 -38 -104 0 -114 10 -133 135 -8 52 -23
133 -34 180 -11 47 -27 143 -36 214 -9 71 -21 139 -27 150 -36 68 -72 107
-132 140 -71 40 -124 46 -186 21 -19 -7 -64 -24 -100 -37 -96 -36 -216 -126
-369 -278 -118 -116 -187 -201 -226 -272 -28 -53 -56 -63 -76 -27 -14 26 -13
34 45 349 8 47 20 148 26 225 11 151 21 218 50 365 46 229 57 450 26 519 -32
71 -136 105 -242 80z m6686 -1139 c27 -27 26 -73 -4 -157 -14 -37 -30 -88 -36
-112 -6 -24 -27 -66 -46 -93 -19 -28 -34 -56 -34 -64 0 -30 -174 -212 -304
-316 -43 -36 -113 -68 -148 -68 -41 0 -71 34 -65 73 12 69 55 209 70 225 9 10
27 43 41 73 13 30 35 68 48 85 13 16 30 43 37 61 13 32 177 204 245 257 71 55
160 72 196 36z"/>
<path d="M11325 1746 c-43 -21 -110 -85 -129 -123 -9 -18 -27 -49 -41 -68 -13
-20 -31 -60 -39 -89 -9 -29 -25 -65 -36 -79 -12 -14 -28 -50 -36 -79 -9 -29
-28 -73 -44 -98 -15 -25 -33 -63 -40 -85 -7 -22 -28 -60 -47 -84 -18 -24 -33
-50 -33 -57 0 -8 -15 -31 -33 -51 -18 -21 -46 -56 -62 -77 -46 -63 -187 -196
-230 -218 -22 -12 -53 -32 -69 -45 -37 -31 -82 -28 -108 8 -20 26 -20 27 1
135 11 60 23 129 27 154 3 25 16 72 29 105 33 89 47 190 48 346 1 138 1 139
-28 180 -54 75 -73 84 -188 84 -131 0 -154 -12 -195 -104 -40 -90 -51 -150
-62 -336 -14 -236 -19 -278 -46 -373 -17 -58 -27 -125 -31 -199 -6 -112 -6
-112 37 -200 51 -107 57 -114 145 -172 70 -46 70 -46 172 -49 73 -3 116 1 150
12 123 39 217 77 237 94 11 11 39 29 61 40 79 39 290 263 377 400 33 51 61 55
83 12 8 -16 15 -35 15 -42 0 -14 72 -121 109 -161 14 -15 59 -46 101 -69 70
-39 80 -42 155 -42 65 0 92 5 140 27 33 14 78 31 101 37 22 5 59 23 80 38 22
16 55 34 74 41 19 6 55 27 79 46 24 19 49 35 55 35 6 0 32 17 58 38 25 20 72
57 104 82 197 155 315 279 374 395 15 29 36 55 53 63 27 13 27 14 27 112 0 99
0 99 -47 106 -76 12 -114 8 -142 -15 -14 -12 -44 -35 -66 -52 -22 -16 -67 -56
-100 -88 -56 -54 -226 -204 -305 -270 -19 -16 -53 -39 -75 -52 -22 -12 -55
-35 -73 -51 -18 -15 -39 -28 -46 -28 -7 0 -42 -15 -77 -34 -71 -37 -119 -51
-148 -41 -11 3 -41 37 -66 76 -45 67 -47 72 -57 177 -7 75 -6 156 2 272 6 91
14 199 17 241 4 63 2 82 -15 115 -11 22 -27 46 -36 53 -24 20 -126 24 -161 7z"/>
</g>
</svg>